<?xml version="1.0" encoding="utf-8"?>
<!-- Generator: Adobe Illustrator 19.2.0, SVG Export Plug-In . SVG Version: 6.00 Build 0)  -->
<svg version="1.1" id="Layer_1" xmlns="http://www.w3.org/2000/svg" xmlns:xlink="http://www.w3.org/1999/xlink" x="0px" y="0px"
	 viewBox="0 0 558 144.1" style="enable-background:new 0 0 558 144.1;" xml:space="preserve">
<style type="text/css">
	.st0{fill:#D90E0E;}
</style>
<g transform="translate(0.000000,468.000000) scale(0.100000,-0.100000)">
	<path class="st0" d="M402.3,4615c-127-24-170-45-246-118c-75-70-111-129-140-228c-20-65-22-235-4-299c44-158,147-274,295-330
		c50-19,81-23,185-24c106-1,136,3,195,22c75,25,171,78,179,98c4,10-66,128-90,154c-3,2-15-2-27-10c-82-51-139-70-221-70
		c-79,0-123,12-181,51c-46,30-98,116-93,152l3,22l344,3l344,2l-6,103c-8,153-51,258-145,359c-48,52-138,100-220,117
		C511.3,4632,487.3,4632,402.3,4615z M603.3,4400c64-43,128-155,102-181c-5-5-110-8-234-7l-224,3l3,24c8,75,86,162,163,182
		C471.3,4435,564.3,4425,603.3,4400z"/>
	<path class="st0" d="M1427.3,4618c-100-24-228-78-273-117c-27-24-25-39,19-113c16-27,29-53,29-58c0-17,20-11,63,18
		c41,27,61,37,120,61c15,6,63,11,106,11c72,0,83-3,127-32c63-43,83-83,84-174c0-39-3-73-6-77c-3-3-29,10-58,28c-70,47-135,65-236,65
		c-118,0-188-28-253-99c-54-60-69-103-69-201c0-105,29-179,93-234c77-65,121-80,234-80c85,0,108,4,155,26c30,14,70,37,88,53
		c38,31,49,26,54-25l3-35h115h115v355c0,396-3,415-70,503c-54,71-101,95-240,123C1549.3,4632,1487.3,4632,1427.3,4618z M1595.3,4056
		c20-8,53-26,72-40c34-26,35-30,35-91v-65l-47-34c-64-46-153-64-219-45c-56,17-110,72-119,122c-10,53,23,120,72,146
		C1434.3,4073,1537.3,4076,1595.3,4056z"/>
	<path class="st0" d="M2157.3,4588c-3-13-5-61-3-108l3-85l203-3c194-2,202-3,202-22c0-11-4-20-8-20s-16-13-25-30c-10-16-23-35-30-42
		s-24-29-37-48s-27-37-30-40s-17-21-30-40s-27-37-30-40s-17-21-30-40s-27-37-30-40s-40-52-83-108l-77-104v-88c0-71,3-89,16-94
		c20-8,708-8,728,0c13,5,16,25,16,110v104h-209c-116,0-212,4-215,9c-3,4,65,100,150,212c86,112,181,236,211,275l54,71l-3,94l-3,94
		l-367,3l-368,2L2157.3,4588z"/>
	<path class="st0" d="M3002.3,4598c0-11,30-94,71-195c5-13,13-33,18-45c5-13,19-50,31-83s27-71,32-85c6-14,14-34,18-45s12-31,18-45
		c5-14,20-52,32-85c26-71,34-92,48-125c5-14,24-63,42-110s37-96,43-109c25-51-3-151-52-188c-28-21-104-35-133-24
		c-41,16-43,11-65-160c-3-30-1-49,6-54c7-4,51-7,99-6c88,0,187,24,237,57c40,26,100,126,143,234c22,58,77,200,122,315
		c45,116,108,278,140,360c126,321,150,387,144,396c-6,11-224,12-240,1c-6-4-21-36-33-72s-26-74-31-85c-4-11-13-36-20-55
		s-16-44-20-55c-10-23-55-150-76-215c-8-25-19-54-24-65s-16-40-23-65c-8-25-21-45-27-45c-7,0-39,73-72,165c-33,91-68,188-78,215
		c-10,28-38,103-61,168l-42,117h-123C3033.3,4610,3002.3,4607,3002.3,4598z"/>
	<path class="st0" d="M4535.3,4116c-18-7-46-22-63-34l-30-22l-6,25c-6,23-11,25-60,25h-54l2-237l3-238l29-3c15-2,39-1,52,2
		c24,6,24,6,24,162c0,87,5,164,10,175c13,24,61,49,93,49c14,0,35-9,48-19c23-18,24-25,27-190c4-168,5-171,27-177c12-3,36-4,51-2
		l29,3l5,162c5,158,6,163,31,188c35,35,87,43,119,17c24-20,25-24,30-194l5-173h55h55v200c0,228-7,254-72,281c-30,13-44,13-87,3
		c-47-11-107-43-114-61c-7-16-30-7-53,21c-13,16-42,34-64,40C4581.3,4132,4578.3,4132,4535.3,4116z"/>
	<path class="st0" d="M5114.3,4033c16-43,33-87,38-98c4-11,12-31,18-45c5-14,20-52,32-85s27-71,32-85c6-14,14-34,19-45
		c30-74-2-135-70-135h-39l-4-50l-3-50l35-1c79-3,142,20,167,60c6,9,47,111,92,226c45,116,97,248,116,295l33,85l-55,3
		c-30,2-60-1-66-7c-7-5-18-31-26-58c-8-26-17-52-21-58c-3-5-12-30-20-55c-7-25-17-49-22-54c-4-6-8-18-8-27s-8-27-18-39l-18-23
		l-18,49c-10,27-26,72-36,99c-10,28-29,78-41,113l-22,62h-63h-63L5114.3,4033z"/>
	<path class="st0" d="M4079.3,3752c-9-10-17-27-18-38c-5-50,2-65,35-81c32-15,37-15,61,1c42,28,52,61,30,102c-16,29-23,34-55,34
		C4109.3,3770,4089.3,3763,4079.3,3752z"/>
</g>
</svg>
